<svg xmlns="http://www.w3.org/2000/svg" viewBox="0 0 64 64" width="64" height="64">
  <rect width="64" height="64" rx="12" fill="#0b6bcb"/>
  <g fill="#ffffff">
    <ellipse cx="32" cy="18" rx="18" ry="7"/>
    <path d="M14 18v14c0 3.87 8.06 7 18 7s18-3.13 18-7V18c0 3.87-8.06 7-18 7s-18-3.13-18-7z" opacity="0.85"/>
    <path d="M14 34v12c0 3.87 8.06 7 18 7s18-3.13 18-7V34c0 3.87-8.06 7-18 7s-18-3.13-18-7z" opacity="0.7"/>
  </g>
  <path d="M44 40l6 6-6 6M50 46H34" stroke="#ffd400" stroke-width="3" fill="none" stroke-linecap="round" stroke-linejoin="round"/>
</svg>
